<svg width="155" height="30" viewBox="0 0 155 30" fill="none" xmlns="http://www.w3.org/2000/svg">
<path d="M13.7669 26.7073C12.7835 27.0732 12.2918 27.3171 11.3085 27.6829C6.88343 23.4146 4.6709 21.2195 0 17.1951C1.47502 16.5854 2.21253 16.2195 3.68755 15.6098C6.63759 18.4146 7.98969 19.7561 10.8168 22.6829C10.8168 18.6585 10.9397 16.7073 11.0626 12.6829C12.4148 12.1951 13.1523 11.9512 14.6273 11.3415C14.1356 17.439 13.8898 20.6098 13.7669 26.7073ZM23.2316 23.2927C21.3878 17.9268 20.5274 15.2439 18.6836 9.87805C20.0357 9.39024 20.6503 9.26829 22.0024 8.78049C23.7232 14.1463 24.5837 16.8293 26.3045 22.3171C25.0753 22.6829 24.4607 22.9268 23.2316 23.2927ZM31.59 20.7317C30.115 15.2439 29.2546 12.561 27.7795 7.19512C29.1316 6.82927 29.7462 6.58537 31.0983 6.34146C32.5734 11.8293 33.3109 14.5122 34.663 20C33.4338 20.2439 32.8192 20.4878 31.59 20.7317ZM40.9318 11.2195C41.0547 11.8293 41.3006 12.439 41.6693 12.9268C42.0381 13.4146 42.4068 13.7805 42.8985 14.1463C43.3902 14.5122 43.8818 14.6341 44.3735 14.7561C44.8652 14.878 45.4798 14.878 46.0944 14.7561C46.709 14.6341 47.3236 14.3902 47.8152 14.0244C48.3069 13.6585 48.6757 13.1707 48.9215 12.6829C50.1507 13.2927 50.7653 13.5366 51.9944 14.1463C51.5028 15.122 50.8882 15.8537 49.9048 16.3415C49.0444 16.9512 48.0611 17.3171 47.0777 17.439C45.9715 17.6829 44.8652 17.6829 43.8818 17.561C42.8985 17.439 41.9151 17.0732 41.0547 16.5854C40.1943 16.0976 39.4568 15.4878 38.8422 14.6341C38.2276 13.7805 37.8588 12.9268 37.4901 11.8293C37.2443 10.7317 37.2443 9.63415 37.3672 8.65854C37.613 7.68293 37.9818 6.82927 38.5964 5.97561C39.2109 5.2439 39.9485 4.51219 40.9318 4.02439C41.9151 3.65854 43.0214 3.17073 44.2506 2.92683C44.7423 2.80488 45.111 2.80488 45.6027 2.80488C46.0944 2.80488 46.586 2.80488 47.0777 2.92683C47.5694 3.04878 48.0611 3.17073 48.5527 3.29268C49.0444 3.53659 49.4132 3.78049 49.9048 4.02439C48.9215 5 48.5527 5.4878 47.5694 6.34146C47.2006 5.97561 46.709 5.85366 46.2173 5.73171C45.7256 5.60976 45.111 5.60976 44.4964 5.73171C43.8818 5.85366 43.2672 6.09756 42.7756 6.46341C42.2839 6.82927 41.9151 7.19512 41.5464 7.68293C41.1776 8.17073 41.0547 8.65854 40.9318 9.26829C40.8089 10 40.8089 10.6098 40.9318 11.2195ZM56.4195 15.7317C55.682 10.122 55.3132 7.31707 54.5757 1.70732C58.8779 1.09756 60.9675 0.97561 65.2696 0.609756C65.3925 1.70732 65.3925 2.31707 65.5155 3.41463C62.6883 3.65854 61.2133 3.78049 58.3862 4.14634C58.5091 5.2439 58.5091 5.73171 58.632 6.70732C61.2133 6.46341 62.5654 6.21951 65.2696 6.09756C65.3925 7.19512 65.3925 7.80488 65.5155 8.90244C62.9342 9.14634 61.5821 9.26829 59.0008 9.51219C59.1237 10.6098 59.2466 11.2195 59.3695 12.3171C62.1967 11.9512 63.6717 11.8293 66.4988 11.5854C66.6217 12.6829 66.6217 13.2927 66.7446 14.3902C62.5654 15 60.5987 15.1219 56.4195 15.7317ZM87.272 14.2683C86.2887 14.2683 85.6741 14.2683 84.6907 14.1463C82.4782 8.41463 81.249 5.60976 78.7906 0C80.3886 0 81.1261 0 82.724 0C84.1991 3.78049 84.9366 5.60976 86.2887 9.39024C87.8866 5.73171 88.747 3.90244 90.5908 0.365854C92.0658 0.487805 92.8033 0.487805 94.2783 0.609756C91.3283 5.97561 89.8533 8.65854 87.272 14.2683ZM108.906 5C106.079 4.63415 104.726 4.39024 101.776 4.02439C101.653 5.12195 101.653 5.60976 101.531 6.58537C104.112 6.82927 105.464 7.07317 108.168 7.43902C108.045 8.53658 107.922 9.14634 107.799 10.2439C105.218 9.87805 103.866 9.7561 101.285 9.39024C101.162 10.4878 101.039 11.0976 100.916 12.1951C103.743 12.561 105.218 12.6829 108.045 13.1707C107.922 14.2683 107.799 14.878 107.554 15.9756C103.497 15.3659 101.408 15.122 97.3513 14.7561C97.843 9.14634 98.2117 6.34146 98.7034 0.731707C103.006 1.21951 105.095 1.46341 109.397 2.19512C109.151 3.29268 109.151 3.90244 108.906 5ZM122.55 8.90244C122.672 8.53658 122.672 8.29268 122.55 8.04878C122.427 7.80488 122.304 7.56097 122.058 7.43902C121.689 7.31707 121.443 7.07317 121.197 7.07317C120.952 6.95122 120.583 6.82927 120.337 6.82927C119.477 6.58537 118.985 6.58537 118.125 6.34146C117.879 7.56097 117.756 8.29268 117.51 9.51219C118.247 9.63415 118.739 9.7561 119.477 9.87805C119.722 10 120.091 10 120.46 10C120.829 10 121.075 10 121.443 10C121.689 10 121.935 9.87805 122.181 9.63415C122.304 9.51219 122.427 9.26829 122.55 8.90244ZM125.991 9.7561C125.745 10.7317 125.254 11.4634 124.516 12.0732C123.779 12.561 122.918 12.8049 121.812 12.8049C122.795 15.4878 123.287 16.8293 124.148 19.5122C122.672 19.1463 121.935 18.9024 120.337 18.6585C119.6 16.2195 119.231 15 118.493 12.439C117.879 12.3171 117.51 12.1951 116.895 12.0732C116.404 14.2683 116.281 15.3659 115.789 17.561C114.56 17.3171 113.945 17.1951 112.593 16.9512C113.577 11.3415 114.068 8.65854 115.174 3.04878C117.633 3.53659 118.739 3.65854 121.197 4.26829C121.935 4.39024 122.672 4.63415 123.41 5C124.025 5.2439 124.639 5.60976 125.131 6.09756C125.623 6.58537 125.868 7.07317 126.114 7.68293C126.114 8.29268 126.114 8.90244 125.991 9.7561ZM138.406 12.3171C138.283 11.9512 137.914 11.5854 137.546 11.3415C137.177 11.0976 136.685 10.8537 136.316 10.7317C136.071 10.6098 135.825 10.6098 135.579 10.6098C135.333 10.6098 135.087 10.6098 134.841 10.6098C134.596 10.6098 134.35 10.7317 134.104 10.8537C133.858 10.9756 133.735 11.2195 133.735 11.4634C133.612 11.8293 133.735 12.1951 133.981 12.561C134.227 12.9268 134.596 13.1707 135.087 13.5366C135.579 13.7805 136.071 14.1463 136.562 14.5122C137.054 14.878 137.546 15.2439 138.037 15.6098C138.406 16.0976 138.775 16.5854 138.898 17.0732C139.021 17.6829 139.021 18.2927 138.775 19.1463C138.529 19.878 138.16 20.4878 137.669 20.9756C137.177 21.4634 136.685 21.8293 136.071 21.9512C135.456 22.1951 134.841 22.1951 134.104 22.1951C133.366 22.1951 132.629 22.0732 131.891 21.8293C131.031 21.5854 130.171 21.2195 129.433 20.7317C128.695 20.2439 128.081 19.6341 127.589 18.7805C128.695 18.0488 129.31 17.6829 130.539 17.0732C130.785 17.561 131.031 18.0488 131.523 18.4146C131.891 18.7805 132.383 19.0244 132.998 19.1463C133.243 19.2683 133.489 19.2683 133.858 19.2683C134.104 19.2683 134.35 19.2683 134.596 19.2683C134.841 19.2683 135.087 19.1463 135.21 19.0244C135.333 18.9024 135.579 18.6585 135.579 18.4146C135.702 18.0488 135.702 17.6829 135.333 17.3171C135.087 16.9512 134.718 16.7073 134.227 16.3415C133.735 15.9756 133.243 15.7317 132.752 15.3659C132.26 15 131.768 14.6341 131.277 14.2683C130.785 13.9024 130.539 13.4146 130.293 12.8049C130.048 12.1951 130.048 11.5854 130.293 10.8537C130.539 10.1219 130.785 9.51219 131.277 9.02439C131.768 8.53658 132.26 8.17073 132.998 8.04878C133.612 7.80488 134.35 7.68293 135.087 7.68293C135.825 7.68293 136.562 7.80488 137.3 8.04878C138.16 8.29268 139.021 8.65854 139.635 9.14634C140.373 9.63415 140.987 10.2439 141.479 10.9756C140.127 11.4634 139.512 11.7073 138.406 12.3171ZM151.558 22.439C151.558 20.4878 151.558 19.6341 151.435 17.6829C150.083 19.0244 149.346 19.7561 148.117 21.0976C149.469 21.5854 150.083 21.8293 151.558 22.439ZM151.558 28.5366C151.558 27.1951 151.558 26.5854 151.558 25.2439C149.346 24.3902 148.362 23.9024 146.15 23.0488C145.289 24.0244 144.798 24.5122 143.937 25.3659C142.585 24.878 141.971 24.6341 140.496 24.1463C144.798 19.6341 147.01 17.439 151.681 13.1707C152.787 13.5366 153.279 13.7805 154.385 14.2683C154.754 20.4878 154.877 23.6585 155 29.878C153.648 29.3902 152.91 29.1463 151.558 28.5366Z" fill="#1D1D1B"/>
</svg>
